<?xml version="1.0" standalone="no"?>
<!DOCTYPE svg PUBLIC "-//W3C//DTD SVG 20010904//EN"
 "http://www.w3.org/TR/2001/REC-SVG-20010904/DTD/svg10.dtd">
<svg version="1.0" xmlns="http://www.w3.org/2000/svg"
 width="150.000000pt" height="150.000000pt" viewBox="0 0 150.000000 150.000000"
 preserveAspectRatio="xMidYMid meet">

<g transform="translate(0.000000,150.000000) scale(0.100000,-0.100000)"
fill="#000000" stroke="none">
<path d="M0 750 l0 -750 750 0 750 0 0 750 0 750 -750 0 -750 0 0 -750z m1209
406 c9 -10 3 -31 -24 -90 -19 -42 -82 -187 -141 -324 -59 -136 -112 -250 -118
-254 -20 -13 -93 -9 -105 6 -10 12 -4 33 30 105 35 75 41 97 36 132 -10 73
-20 71 -102 -18 -125 -136 -259 -223 -364 -238 -100 -14 -229 30 -282 94 -50
61 -56 160 -15 240 21 38 84 95 136 122 36 18 62 23 126 23 74 1 84 -1 118
-28 71 -54 83 -134 31 -202 -29 -38 -99 -78 -121 -70 -21 8 -17 34 7 46 47 26
73 106 48 152 -17 31 -72 50 -118 39 -85 -19 -140 -85 -148 -179 -4 -48 -1
-62 19 -91 36 -54 82 -76 158 -76 77 0 165 37 245 103 49 41 185 190 185 204
0 16 -118 60 -179 66 -58 6 -66 10 -69 30 -3 20 1 22 40 22 59 0 154 -26 204
-55 l40 -24 85 97 c115 131 178 182 228 182 21 0 44 -6 50 -14z"/>
<path d="M972 926 l-73 -85 19 -30 18 -30 57 115 c31 63 56 114 54 114 -1 0
-35 -38 -75 -84z"/>
</g>
</svg>
